<?xml version="1.0" standalone="no"?>
<!DOCTYPE svg PUBLIC "-//W3C//DTD SVG 20010904//EN"
 "http://www.w3.org/TR/2001/REC-SVG-20010904/DTD/svg10.dtd">
<svg version="1.0" xmlns="http://www.w3.org/2000/svg"
 width="260.000000pt" height="260.000000pt" viewBox="0 0 260.000000 260.000000"
 preserveAspectRatio="xMidYMid meet">
<metadata>
Created by potrace 1.11, written by Peter Selinger 2001-2013
</metadata>
<g transform="translate(0.000000,260.000000) scale(0.100000,-0.100000)"
fill="#000000" stroke="none">
<path d="M76 1911 c-1 -3 -2 -197 -2 -431 l1 -425 125 0 c69 -1 132 1 140 3
12 2 14 20 12 100 -2 53 -2 121 0 151 l3 53 85 -126 c47 -69 87 -126 90 -126
3 0 12 12 21 28 32 52 140 207 147 210 4 1 7 -64 7 -145 l0 -148 135 0 135 0
0 430 0 430 -111 1 -111 1 -109 -163 c-60 -90 -111 -163 -114 -164 -3 0 -55
73 -115 163 l-111 162 -112 1 c-62 0 -114 -2 -116 -5z m308 -312 c78 -114 144
-205 147 -203 3 2 68 95 145 208 90 133 145 205 157 206 16 0 17 -22 17 -325
0 -303 -1 -325 -17 -325 -17 0 -18 20 -17 290 1 159 -1 290 -5 290 -3 -1 -22
-27 -42 -58 -20 -31 -82 -123 -138 -204 l-101 -148 -47 68 c-27 38 -90 130
-142 205 -52 75 -97 137 -100 137 -3 0 -5 -130 -4 -290 3 -269 1 -290 -15
-290 -16 0 -17 23 -17 325 0 314 1 326 19 323 12 -2 71 -79 160 -209z"/>
<path d="M1620 1486 l0 -431 133 0 c72 -1 134 3 137 7 4 4 6 71 5 148 -1 77 2
140 5 140 3 0 41 -52 85 -115 43 -64 81 -118 85 -120 4 -2 45 52 91 121 l84
126 5 -154 5 -153 125 0 c69 0 130 3 135 7 7 4 10 155 10 430 l0 423 -113 1
-113 2 -111 -164 c-61 -89 -115 -161 -118 -159 -4 3 -49 67 -100 142 -52 76
-101 147 -109 159 -14 19 -25 21 -128 21 l-113 0 0 -431z m210 257 c202 -300
243 -355 254 -340 49 70 193 282 201 295 36 61 78 112 93 112 16 0 17 -24 16
-313 -2 -364 0 -337 -18 -337 -11 0 -14 50 -14 286 0 157 -2 288 -4 290 -3 2
-54 -68 -114 -157 -60 -88 -123 -180 -140 -205 l-32 -44 -128 185 c-71 102
-133 194 -139 205 -5 11 -12 20 -16 20 -3 0 -6 -125 -7 -277 0 -332 1 -303
-17 -303 -13 0 -15 43 -15 325 0 303 1 325 18 325 10 0 36 -28 62 -67z"/>
<path d="M1203 1610 c-103 -23 -156 -137 -104 -225 l21 -36 -31 -27 c-40 -36
-59 -93 -47 -144 20 -92 85 -132 213 -132 111 1 177 28 262 107 l65 61 -54 48
c-29 26 -56 48 -60 48 -4 0 -12 -9 -18 -20 -14 -26 -24 -25 -66 6 l-34 27 26
26 c39 38 55 84 48 132 -15 93 -117 153 -221 129z m100 -72 c37 -19 50 -38 52
-76 3 -47 -7 -66 -55 -101 l-39 -28 51 -44 c28 -24 55 -47 62 -51 6 -4 7 -10
3 -14 -4 -4 -28 11 -54 33 -82 68 -86 70 -124 43 -47 -32 -59 -49 -59 -85 0
-63 71 -99 165 -82 59 10 93 27 140 69 20 17 39 27 43 24 8 -9 -50 -60 -98
-85 -128 -67 -270 -27 -270 77 0 34 38 84 83 108 16 9 15 13 -16 46 -55 59
-56 114 -1 157 30 23 83 28 117 9z m-31 -317 c40 -30 40 -41 1 -41 -48 0 -81
38 -56 63 10 11 15 9 55 -22z"/>
<path d="M1190 1508 c-11 -12 -21 -25 -21 -30 -1 -4 -2 -14 -3 -20 -3 -20 19
-60 48 -88 26 -24 27 -24 60 -6 36 19 66 63 66 96 0 59 -107 94 -150 48z m89
-36 c6 -12 5 -23 -4 -35 -17 -24 -42 -21 -48 5 -11 41 33 66 52 30z"/>
<path d="M1127 934 c-1 -1 -121 -5 -267 -9 -146 -4 -317 -9 -380 -10 -63 -2
-157 -4 -209 -4 -141 -1 -102 -13 56 -17 189 -4 457 -12 711 -20 l212 -6 0 34
0 34 -61 0 c-33 0 -61 -1 -62 -2z"/>
<path d="M1299 917 c0 -12 -1 -66 -2 -120 l-2 -97 117 0 c108 0 117 2 123 20
3 11 9 20 13 20 4 0 13 -9 20 -20 9 -15 23 -20 53 -20 l41 0 -34 63 -35 62 28
50 c16 28 29 53 29 56 0 3 -18 6 -40 6 -31 0 -41 -4 -46 -20 -6 -20 -7 -20
-23 1 -12 16 -26 21 -53 20 -21 -1 -38 -3 -38 -5 0 -2 13 -27 30 -56 l30 -54
-33 -59 c-29 -54 -32 -57 -35 -31 -2 18 -9 27 -23 28 -35 3 -39 4 -41 14 -2 6
12 11 30 13 28 3 32 6 30 31 -2 24 -7 28 -31 29 -16 0 -32 4 -35 7 -11 10 22
25 46 20 21 -3 23 0 20 28 l-3 32 -67 2 c-64 1 -68 0 -69 -20z"/>
<path d="M1667 932 c-2 -4 -3 -56 -3 -117 l1 -110 38 -3 c25 -2 37 1 38 10 1
7 2 20 3 28 0 8 13 16 28 18 82 10 107 125 36 163 -25 14 -135 22 -141 11z
m101 -84 c-5 -32 -28 -35 -28 -4 0 17 5 26 16 26 10 0 14 -7 12 -22z"/>
<path d="M1870 819 l0 -120 38 3 c33 3 37 6 35 28 l-3 25 23 -27 c18 -23 31
-28 65 -28 l42 0 -21 40 c-16 31 -19 44 -10 54 30 36 19 100 -21 125 -11 7
-49 15 -84 17 l-64 4 0 -121z m107 35 c3 -8 1 -20 -6 -27 -13 -13 -16 -10 -25
21 -6 16 -3 22 9 22 8 0 18 -7 22 -16z"/>
<path d="M2080 936 c-1 -2 -1 -199 -1 -218 1 -15 11 -18 71 -18 l70 0 0 30 c0
21 -5 30 -17 31 -37 3 -43 4 -45 14 -2 6 12 11 30 13 28 3 32 7 32 34 0 28 -2
30 -30 26 -18 -3 -31 0 -34 9 -5 13 -3 15 37 17 18 1 22 7 22 31 l0 30 -67 1
c-38 1 -68 1 -68 0z"/>
<path d="M2251 921 c-31 -31 -26 -65 15 -111 37 -41 35 -46 -18 -41 -14 2 -18
-5 -18 -33 0 -37 1 -38 55 -39 54 -1 66 5 85 36 l20 32 0 -32 c0 -34 -2 -33
65 -37 34 -2 74 23 81 50 8 30 -18 91 -41 100 -21 8 -19 21 4 27 13 3 18 13
17 33 -2 27 -5 29 -43 32 -84 6 -111 -67 -48 -128 20 -19 31 -37 25 -40 -18
-11 -70 1 -70 17 0 7 -11 25 -25 39 -30 30 -36 48 -15 49 10 0 15 10 15 30 0
28 -3 30 -42 33 -32 2 -47 -2 -62 -17z"/>
<path d="M110 906 c0 -2 7 -7 16 -10 8 -3 12 -2 9 4 -6 10 -25 14 -25 6z"/>
<path d="M1137 854 c-1 -1 -114 -5 -252 -9 -137 -5 -281 -9 -320 -10 -38 -2
-101 -3 -139 -4 -117 -2 -67 -11 85 -16 79 -3 207 -7 284 -10 77 -3 210 -8
296 -11 l156 -5 5 25 c7 37 -2 44 -60 42 -30 0 -54 -2 -55 -2z"/>
<path d="M318 823 c6 -2 18 -2 25 0 6 3 1 5 -13 5 -14 0 -19 -2 -12 -5z"/>
<path d="M956 763 c-2 -2 -165 -8 -438 -17 -99 -3 -72 -12 45 -14 62 -2 148
-5 192 -7 44 -2 166 -6 270 -10 105 -3 198 -8 208 -11 14 -4 17 1 17 31 l0 36
-146 -3 c-80 -2 -147 -4 -148 -5z"/>
</g>
</svg>
